<svg width="157" height="78" viewBox="0 0 157 78" fill="none" xmlns="http://www.w3.org/2000/svg">
<ellipse cx="60" cy="38" rx="39" ry="38" fill="#E48012"/>
<path d="M9.43359 40.2373V53.1299H15.8799C16.7633 53.1299 17.5944 52.9652 18.373 52.6357C19.1517 52.2913 19.833 51.8271 20.417 51.2432C21.001 50.6592 21.4577 49.9779 21.7871 49.1992C22.1315 48.4056 22.3037 47.5671 22.3037 46.6836C22.3037 45.8001 22.1315 44.9691 21.7871 44.1904C21.4577 43.3968 21.001 42.708 20.417 42.124C19.833 41.54 19.1517 41.0833 18.373 40.7539C17.5944 40.4095 16.7633 40.2373 15.8799 40.2373H9.43359ZM9.43359 66H2.9873V33.791H15.8799C17.0628 33.791 18.2008 33.9482 19.2939 34.2627C20.387 34.5622 21.4053 34.9964 22.3486 35.5654C23.307 36.1195 24.1755 36.7933 24.9541 37.5869C25.7477 38.3656 26.4215 39.234 26.9756 40.1924C27.5446 41.1507 27.9788 42.1764 28.2783 43.2695C28.5928 44.3626 28.75 45.5007 28.75 46.6836C28.75 47.7917 28.6077 48.8698 28.3232 49.918C28.0537 50.9661 27.6569 51.9619 27.1328 52.9053C26.6237 53.8486 25.9948 54.7171 25.2461 55.5107C24.4974 56.3044 23.6589 56.9932 22.7305 57.5771L26.3018 66H19.4512L16.6436 59.5088L9.43359 59.5537V66ZM55.3213 53.7588C55.3213 55.5557 54.9993 57.2327 54.3555 58.79C53.7116 60.3324 52.8356 61.6725 51.7275 62.8105C50.6195 63.9336 49.3167 64.8245 47.8193 65.4834C46.3369 66.1273 44.7422 66.4492 43.0352 66.4492C41.3431 66.4492 39.7484 66.1273 38.251 65.4834C36.7686 64.8245 35.4658 63.9336 34.3428 62.8105C33.2347 61.6725 32.3587 60.3324 31.7148 58.79C31.071 57.2327 30.749 55.5557 30.749 53.7588C30.749 51.932 31.071 50.2399 31.7148 48.6826C32.3587 47.1253 33.2347 45.7852 34.3428 44.6621C35.4658 43.5241 36.7686 42.6331 38.251 41.9893C39.7484 41.3454 41.3431 41.0234 43.0352 41.0234C44.7422 41.0234 46.3369 41.3304 47.8193 41.9443C49.3167 42.5433 50.6195 43.4043 51.7275 44.5273C52.8356 45.6354 53.7116 46.9756 54.3555 48.5479C54.9993 50.1051 55.3213 51.8421 55.3213 53.7588ZM49.1445 53.7588C49.1445 52.7705 48.9798 51.8796 48.6504 51.0859C48.3359 50.2773 47.9017 49.5885 47.3477 49.0195C46.7936 48.4355 46.1423 47.9938 45.3936 47.6943C44.6598 47.3799 43.8737 47.2227 43.0352 47.2227C42.1966 47.2227 41.403 47.3799 40.6543 47.6943C39.9206 47.9938 39.2767 48.4355 38.7227 49.0195C38.1836 49.5885 37.7568 50.2773 37.4424 51.0859C37.1279 51.8796 36.9707 52.7705 36.9707 53.7588C36.9707 54.6872 37.1279 55.5482 37.4424 56.3418C37.7568 57.1354 38.1836 57.8242 38.7227 58.4082C39.2767 58.9922 39.9206 59.4564 40.6543 59.8008C41.403 60.1302 42.1966 60.2949 43.0352 60.2949C43.8737 60.2949 44.6598 60.1377 45.3936 59.8232C46.1423 59.5088 46.7936 59.0671 47.3477 58.498C47.9017 57.929 48.3359 57.2402 48.6504 56.4316C48.9798 55.623 49.1445 54.7321 49.1445 53.7588ZM64.8896 66H58.7129V32.376H64.8896V66ZM79.1523 60.1152C79.3919 60.1901 79.6315 60.2425 79.8711 60.2725C80.1107 60.2874 80.3503 60.2949 80.5898 60.2949C81.1888 60.2949 81.7653 60.2126 82.3193 60.0479C82.8734 59.8831 83.39 59.651 83.8691 59.3516C84.3633 59.0371 84.7975 58.6628 85.1719 58.2285C85.5612 57.7793 85.8757 57.2852 86.1152 56.7461L90.6074 61.2607C90.0384 62.0693 89.3796 62.7956 88.6309 63.4395C87.8971 64.0833 87.096 64.6299 86.2275 65.0791C85.374 65.5283 84.4681 65.8652 83.5098 66.0898C82.5664 66.3294 81.5931 66.4492 80.5898 66.4492C78.8978 66.4492 77.3031 66.1348 75.8057 65.5059C74.3232 64.877 73.0205 64.001 71.8975 62.8779C70.7894 61.7549 69.9134 60.4222 69.2695 58.8799C68.6257 57.3226 68.3037 55.6156 68.3037 53.7588C68.3037 51.8571 68.6257 50.1201 69.2695 48.5479C69.9134 46.9756 70.7894 45.6354 71.8975 44.5273C73.0205 43.4193 74.3232 42.5583 75.8057 41.9443C77.3031 41.3304 78.8978 41.0234 80.5898 41.0234C81.5931 41.0234 82.5739 41.1432 83.5322 41.3828C84.4906 41.6224 85.3965 41.9668 86.25 42.416C87.1185 42.8652 87.9271 43.4193 88.6758 44.0781C89.4245 44.722 90.0833 45.4482 90.6523 46.2568L79.1523 60.1152ZM82.2969 47.4697C82.0124 47.3649 81.7279 47.2975 81.4434 47.2676C81.1738 47.2376 80.8893 47.2227 80.5898 47.2227C79.7513 47.2227 78.9577 47.3799 78.209 47.6943C77.4753 47.9938 76.8314 48.4281 76.2773 48.9971C75.7383 49.5661 75.3115 50.2549 74.9971 51.0635C74.6826 51.8571 74.5254 52.7555 74.5254 53.7588C74.5254 53.9834 74.5329 54.238 74.5479 54.5225C74.5778 54.807 74.6152 55.099 74.6602 55.3984C74.7201 55.6829 74.7874 55.96 74.8623 56.2295C74.9372 56.499 75.0345 56.7386 75.1543 56.9482L82.2969 47.4697ZM99.8838 66H93.752V41.9443H95.2344L97.2559 44.2803C98.2441 43.3818 99.3597 42.693 100.603 42.2139C101.86 41.7197 103.171 41.4727 104.533 41.4727C106.001 41.4727 107.386 41.7572 108.688 42.3262C109.991 42.8802 111.129 43.6514 112.103 44.6396C113.076 45.613 113.84 46.7585 114.394 48.0762C114.963 49.3789 115.247 50.7715 115.247 52.2539V66H109.115V52.2539C109.115 51.625 108.995 51.0335 108.756 50.4795C108.516 49.9105 108.187 49.4163 107.768 48.9971C107.348 48.5778 106.862 48.2484 106.308 48.0088C105.754 47.7692 105.162 47.6494 104.533 47.6494C103.889 47.6494 103.283 47.7692 102.714 48.0088C102.145 48.2484 101.651 48.5778 101.231 48.9971C100.812 49.4163 100.483 49.9105 100.243 50.4795C100.004 51.0335 99.8838 51.625 99.8838 52.2539V66ZM136.742 53.7588C136.742 52.9202 136.577 52.1117 136.248 51.333C135.934 50.5394 135.499 49.8431 134.945 49.2441C134.391 48.6302 133.74 48.1436 132.991 47.7842C132.257 47.4098 131.471 47.2227 130.633 47.2227C129.794 47.2227 129.001 47.3649 128.252 47.6494C127.518 47.9339 126.874 48.3532 126.32 48.9072C125.781 49.4613 125.354 50.1501 125.04 50.9736C124.726 51.7822 124.568 52.7106 124.568 53.7588C124.568 54.762 124.726 55.668 125.04 56.4766C125.354 57.2702 125.781 57.9515 126.32 58.5205C126.874 59.0895 127.518 59.5312 128.252 59.8457C129.001 60.1452 129.794 60.2949 130.633 60.2949C131.471 60.2949 132.257 60.1152 132.991 59.7559C133.74 59.3815 134.391 58.8949 134.945 58.2959C135.499 57.682 135.934 56.9857 136.248 56.207C136.577 55.4134 136.742 54.5973 136.742 53.7588ZM142.919 62.9678C142.919 64.6598 142.597 66.2471 141.953 67.7295C141.309 69.2119 140.426 70.5072 139.303 71.6152C138.195 72.7233 136.892 73.5993 135.395 74.2432C133.912 74.887 132.325 75.209 130.633 75.209L127.556 75.1641V69.0322L130.588 69.0771C131.546 69.0771 132.362 68.9499 133.036 68.6953C133.71 68.4557 134.279 68.1188 134.743 67.6846C135.207 67.2653 135.574 66.7786 135.844 66.2246C136.128 65.6706 136.353 65.0866 136.518 64.4727C136.278 64.862 135.934 65.1839 135.484 65.4385C135.035 65.6781 134.534 65.8727 133.979 66.0225C133.44 66.1872 132.871 66.2995 132.272 66.3594C131.688 66.4193 131.142 66.4492 130.633 66.4492C128.941 66.4492 127.346 66.1572 125.849 65.5732C124.366 64.9893 123.063 64.1582 121.94 63.0801C120.832 61.987 119.956 60.6543 119.312 59.082C118.669 57.5098 118.347 55.7354 118.347 53.7588C118.347 51.9469 118.669 50.2624 119.312 48.7051C119.956 47.1478 120.832 45.8001 121.94 44.6621C123.063 43.5241 124.366 42.6331 125.849 41.9893C127.346 41.3454 128.941 41.0234 130.633 41.0234C131.411 41.0234 132.183 41.1208 132.946 41.3154C133.71 41.5101 134.451 41.7796 135.17 42.124C135.889 42.4684 136.57 42.8727 137.214 43.3369C137.873 43.8011 138.487 44.3027 139.056 44.8418L141.437 41.9893H142.919V62.9678ZM154.846 35.4082C154.846 35.9772 154.733 36.5088 154.509 37.0029C154.299 37.4971 154.007 37.9313 153.633 38.3057C153.258 38.665 152.817 38.957 152.308 39.1816C151.813 39.3913 151.282 39.4961 150.713 39.4961C150.144 39.4961 149.605 39.3913 149.096 39.1816C148.602 38.957 148.167 38.665 147.793 38.3057C147.434 37.9313 147.142 37.4971 146.917 37.0029C146.707 36.5088 146.603 35.9772 146.603 35.4082C146.603 34.8542 146.707 34.3301 146.917 33.8359C147.142 33.3268 147.434 32.8926 147.793 32.5332C148.167 32.1589 148.602 31.8669 149.096 31.6572C149.605 31.4326 150.144 31.3203 150.713 31.3203C151.282 31.3203 151.813 31.4326 152.308 31.6572C152.817 31.8669 153.258 32.1589 153.633 32.5332C154.007 32.8926 154.299 33.3268 154.509 33.8359C154.733 34.3301 154.846 34.8542 154.846 35.4082ZM153.79 66H147.613V41.9443H153.79V66Z" fill="white"/>
</svg>
